<?xml version="1.0" encoding="UTF-8"?>
<!-- Generator: visioncortex VTracer 0.6.3 -->
<svg version="1.1" xmlns="http://www.w3.org/2000/svg" width="1280" height="1280">
<path d="M0 0 C6.74 5.41 15.07 12.14 19 20 C19.1 22.96 19.13 25.9 19.12 28.86 C19.12 30.25 19.12 30.25 19.12 31.67 C19.12 34.8 19.12 37.93 19.11 41.06 C19.11 43.3 19.11 45.54 19.11 47.78 C19.11 53.86 19.11 59.95 19.1 66.04 C19.1 72.4 19.09 78.75 19.09 85.11 C19.09 95.79 19.08 106.46 19.08 117.14 C19.07 128.13 19.06 139.13 19.05 150.12 C19.05 150.81 19.05 151.49 19.05 152.2 C19.05 158.15 19.05 164.11 19.05 170.06 C19.04 195.71 19.02 221.35 19 247 C-14.66 247 -48.32 247 -83 247 C-83 296.83 -83 346.66 -83 398 C-63.69 397.5 -63.69 397.5 -44 397 C-44.01 393.44 -44.01 389.87 -44.02 386.2 C-44.03 374.45 -44.04 362.7 -44.05 350.95 C-44.06 343.82 -44.06 336.69 -44.08 329.57 C-44.09 322.69 -44.09 315.82 -44.09 308.95 C-44.1 306.32 -44.1 303.69 -44.11 301.06 C-44.11 297.4 -44.11 293.73 -44.11 290.06 C-44.12 288.96 -44.12 287.87 -44.12 286.74 C-44.12 285.74 -44.12 284.75 -44.12 283.72 C-44.12 282.42 -44.12 282.42 -44.12 281.09 C-44 279 -44 279 -43 277 C-36.58 276.64 -30.17 276.4 -23.74 276.23 C-21.57 276.16 -19.39 276.07 -17.21 275.94 C-14.06 275.77 -10.91 275.69 -7.75 275.63 C-6.32 275.52 -6.32 275.52 -4.87 275.41 C2.84 275.41 8.23 278.98 13.8 283.93 C22.96 293.63 21.09 307.86 20.9 320.33 C20.86 324.35 20.9 328.36 20.94 332.37 C20.99 340.22 20.96 348.06 20.9 355.91 C20.84 365.05 20.85 374.2 20.86 383.35 C20.88 399.68 20.83 416 20.74 432.33 C20.65 448.15 20.62 463.98 20.65 479.8 C20.69 497.05 20.7 514.31 20.65 531.57 C20.64 533.41 20.63 535.25 20.63 537.09 C20.62 538 20.62 538.9 20.62 539.84 C20.6 546.2 20.61 552.57 20.62 558.94 C20.64 566.7 20.61 574.47 20.54 582.23 C20.5 586.19 20.48 590.15 20.51 594.1 C20.69 621.53 20.69 621.53 13.63 629.26 C10.7 631.93 10.7 631.93 8 634 C6.81 635.13 5.62 636.26 4.43 637.39 C-19.19 655.73 -44.75 661.27 -74.43 658.8 C-97.69 655.78 -119.75 641.11 -134 623 C-142.96 610.39 -148.85 596.23 -150.45 580.78 C-150.53 580.01 -150.62 579.25 -150.7 578.46 C-150.86 576.93 -151 575.39 -151.13 573.85 C-151.41 570.98 -151.7 568.53 -153.13 565.99 C-156.24 564.34 -158.54 564.58 -162 565 C-164.39 566.32 -166.39 567.59 -168.56 569.19 C-182.76 578.98 -198.37 581.8 -215.31 578.94 C-231.11 575.46 -243.92 566.92 -253 553.56 C-260.5 540.8 -262.76 526.48 -259.89 512.01 C-257.62 504.36 -254 496.38 -248 491 C-247.14 491.28 -246.28 491.55 -245.39 491.84 C-233.42 495.58 -233.42 495.58 -221 496 C-218.05 493.71 -217.12 492.72 -216.5 489 C-217.12 485.26 -218.07 484.35 -221 482 C-224.04 481.05 -224.04 481.05 -227.44 480.56 C-239.08 478.3 -248.7 474.4 -258 467 C-258.71 466.45 -259.42 465.91 -260.15 465.35 C-271.86 455.81 -278.86 441.79 -281 427 C-282.12 412.45 -279.68 400.41 -272 388 C-268.83 390.3 -266.3 392.75 -263.81 395.75 C-256.82 404.02 -256.82 404.02 -247.36 408.5 C-244.63 408.55 -244.63 408.55 -241 408 C-239.79 404.36 -239.6 401.82 -240 398 C-242.22 395.49 -242.22 395.49 -245 393 C-265.45 373.36 -277.37 349.86 -278.31 321.25 C-278.04 308.35 -275.46 295.7 -270 284 C-269.73 283.41 -269.45 282.81 -269.17 282.2 C-262.33 267.68 -251.36 252.69 -237.3 244.41 C-234.74 243.06 -234.74 243.06 -233 240 C-232.54 236.46 -232.61 234.63 -234.5 231.56 C-236.54 229.47 -238.57 227.67 -240.81 225.81 C-250.78 217.24 -257.91 203.93 -259.22 190.79 C-260.1 173.38 -256.34 158.32 -244.81 144.81 C-232.44 131.76 -216.73 124.18 -198.73 123.6 C-189.14 123.47 -181.06 124.68 -172 128 C-168.24 129.25 -164.93 129.57 -161 129 C-158.75 127.58 -158.75 127.58 -158 125 C-158.02 120.24 -158.02 120.24 -160.58 116.45 C-163.77 114.54 -167.09 113.49 -170.62 112.44 C-171.33 112.22 -172.04 112 -172.77 111.78 C-177.56 110.34 -182.34 109.18 -187.28 108.36 C-189 108 -189 108 -190 107 C-191.4 91.06 -184.39 74.63 -174.81 62.25 C-161.55 47.05 -143.67 36.44 -123.31 34.78 C-109.39 34.02 -96.18 34.89 -83.3 40.61 C-79.55 42.19 -77.02 42.46 -73 42 C-70.9 41.15 -70.9 41.15 -70 39 C-69.26 34.9 -69.26 34.9 -70 31 C-79.62 22.2 -97.2 19.85 -109.68 19.9 C-110.38 19.9 -111.08 19.91 -111.81 19.91 C-114.02 19.91 -116.23 19.92 -118.44 19.94 C-119.95 19.94 -121.46 19.95 -122.97 19.95 C-126.64 19.96 -130.32 19.98 -134 20 C-128.99 6.08 -112.74 -3.78 -99.98 -10 C-66.97 -25.41 -29.27 -21.4 0 0 Z M-78.75 175.07 C-80.06 177.09 -80.6 178.9 -81.31 181.19 C-82.23 183.25 -82.23 183.25 -84 185 C-86.74 185.7 -89.35 186.24 -92.12 186.69 C-98.13 187.69 -101.79 188.93 -105.67 193.77 C-107.57 196.45 -109.31 199.17 -111 202 C-111.66 202.99 -112.32 203.98 -113 205 C-116.16 205.3 -116.16 205.3 -120.06 205.31 C-127.1 205.56 -131.96 206.92 -137 212 C-141.64 217.94 -143.72 223.37 -143 231 C-141.66 237.47 -138.32 242.12 -133 246 C-127.2 248.89 -121.12 250.22 -114.78 248.34 C-108.27 245.82 -104.52 242.02 -100.86 236.18 C-98.99 231.44 -99.56 226 -100 221 C-101.44 217.61 -101.44 217.61 -103 215 C-102.44 208.98 -99.02 204.33 -95 200 C-92.33 198.54 -90.01 198.18 -87 198 C-85.8 197.81 -84.61 197.63 -83.38 197.44 C-79.01 198.17 -78.18 199.79 -75.59 203.18 C-72.43 206.81 -68.49 208.62 -63.77 209.34 C-56.82 209.63 -51.5 207.64 -45.75 203.88 C-41.28 199.21 -38.86 194.05 -38.44 187.56 C-38.75 181.47 -41.45 175.86 -45.49 171.33 C-50.94 166.53 -56.19 165.53 -63.22 165.69 C-70.07 166.45 -74.46 169.86 -78.75 175.07 Z M-151.8 318.32 C-155.05 322.87 -154.52 328.67 -154 334 C-151.83 340.91 -145.79 345.14 -140 349 C-139.71 351.73 -139.6 354.25 -139.63 356.98 C-139.63 357.81 -139.62 358.63 -139.62 359.48 C-139.61 361.27 -139.61 363.07 -139.62 364.86 C-139.63 367.7 -139.62 370.53 -139.6 373.37 C-139.56 381.44 -139.56 389.5 -139.56 397.57 C-139.56 402.5 -139.55 407.43 -139.51 412.36 C-139.5 415.16 -139.52 417.95 -139.53 420.75 C-139.52 422.46 -139.51 424.18 -139.5 425.89 C-139.51 426.67 -139.52 427.45 -139.53 428.25 C-139.48 432.52 -139.48 432.52 -137.21 435.99 C-133.75 437.57 -130.3 437.34 -126.58 437.27 C-124.9 437.27 -123.21 437.27 -121.53 437.28 C-118.89 437.27 -116.26 437.25 -113.62 437.21 C-97 436.99 -97 436.99 -92.18 441.17 C-91.08 442.42 -90.02 443.69 -89 445 C-87.95 446.03 -86.88 447.06 -85.8 448.06 C-84.83 449.04 -83.85 450.02 -82.88 451 C-82.36 451.51 -81.85 452.03 -81.32 452.56 C-78.54 455.36 -75.89 458.21 -73.38 461.25 C-72.2 462.61 -72.2 462.61 -71 464 C-70.34 464 -69.68 464 -69 464 C-69 464.66 -69 465.32 -69 466 C-67.52 467.25 -66.04 468.5 -64.51 469.68 C-63 471 -63 471 -61 474 C-60.34 474 -59.68 474 -59 474 C-59 474.66 -59 475.32 -59 476 C-58.34 476 -57.68 476 -57 476 C-56.67 476.99 -56.34 477.98 -56 479 C-55.13 479.76 -54.27 480.53 -53.38 481.31 C-52.2 482.64 -52.2 482.64 -51 484 C-51.19 486.75 -51.19 486.75 -52 490 C-52.94 497.26 -51.33 503.06 -47 509 C-41.92 513.32 -36.84 515.32 -30.12 515.22 C-24.61 514.65 -19.85 511.85 -16 508 C-12.01 502.37 -10.94 496.79 -12 490 C-14.27 482.68 -18.78 479.15 -25 475 C-28.07 474.72 -28.07 474.72 -31.44 474.81 C-32.57 474.82 -33.7 474.83 -34.87 474.83 C-37.88 474.85 -37.88 474.85 -40.13 475.74 C-42 476 -42 476 -44.16 474.55 C-44.93 473.81 -45.7 473.07 -46.5 472.31 C-47.37 471.49 -48.24 470.67 -49.14 469.82 C-50.09 468.88 -51.05 467.94 -52 467 C-52.51 466.5 -53.03 465.99 -53.55 465.47 C-57.06 462.01 -60.54 458.51 -64 455 C-64.77 454.23 -65.55 453.46 -66.35 452.67 C-69.01 449.99 -71.61 447.26 -74.2 444.52 C-75.7 442.96 -77.2 441.4 -78.71 439.85 C-79.74 438.78 -80.76 437.71 -81.77 436.63 C-83.25 435.05 -84.75 433.5 -86.27 431.95 C-87.15 431.03 -88.03 430.1 -88.95 429.15 C-98.06 422.74 -122.55 426 -129 426 C-128.67 400.26 -128.34 374.52 -128 348 C-126.02 347.01 -124.04 346.02 -122 345 C-117.51 341.12 -114.92 336.92 -114 331 C-113.93 325.02 -115.03 319.65 -119 315 C-123.76 310.35 -128.03 308.6 -134.69 308.38 C-142.89 308.8 -146.69 312.29 -151.8 318.32 Z " fill="#000202" transform="translate(613,320)"/>
<path d="M0 0 C6.17 5.24 12.18 10.73 16.43 17.7 C16.43 18.03 16.43 18.36 16.43 18.7 C15.5 18.69 14.57 18.67 13.62 18.65 C10.11 18.6 6.6 18.56 3.1 18.54 C1.59 18.52 0.09 18.5 -1.42 18.47 C-14.09 18.26 -25.79 19.45 -37.7 24.2 C-38.73 24.6 -39.77 25.01 -40.83 25.42 C-44.4 27.09 -47.03 28.33 -48.51 32.08 C-48.6 35.62 -47.93 37.05 -45.57 39.7 C-39.42 41.35 -35.19 39.97 -29.45 37.83 C-27.89 37.26 -26.32 36.7 -24.75 36.15 C-24.07 35.89 -23.39 35.64 -22.68 35.38 C-5.09 29.71 15.67 33.59 31.86 41.51 C37.91 44.64 43.37 48.11 48.43 52.7 C49.17 53.35 49.92 54.01 50.68 54.68 C63.74 66.83 69.89 82.41 72.43 99.7 C72.47 101.7 72.49 103.7 72.43 105.7 C68.54 107.07 64.67 108.16 60.66 109.1 C50.53 111.16 50.53 111.16 41.43 115.7 C39.84 118.53 39.84 118.53 40.43 121.7 C42.87 126.41 42.87 126.41 47.43 128.7 C50.11 127.99 52.68 127.21 55.3 126.33 C72.29 120.69 89.8 120.82 106.41 127.99 C120.98 135.37 132.6 147.32 138.43 162.7 C143.18 178.98 142.5 194.2 134.74 209.51 C131.38 215.24 127.05 219.98 122.43 224.7 C121.72 225.46 121.01 226.21 120.28 226.99 C118.43 228.7 118.43 228.7 116.43 228.7 C115.18 232.44 114.67 235.83 115.43 239.7 C117.38 241.93 118.89 243.32 121.24 245.01 C122.44 245.96 123.64 246.91 124.84 247.86 C125.75 248.57 125.75 248.57 126.67 249.3 C144.95 263.95 156.63 285.49 159.43 308.7 C160.36 321.21 160.16 333.66 156.43 345.7 C156.24 346.32 156.05 346.94 155.86 347.58 C150.35 365.19 140.29 380.89 125.8 392.45 C122.85 394.94 122.49 395.39 121.68 399.39 C122.23 402.7 122.23 402.7 123.99 405.2 C126.41 406.96 126.41 406.96 129.68 406.89 C134.8 405.27 137.66 402.44 141.43 398.7 C142.24 397.91 143.06 397.12 143.9 396.31 C148.17 392.39 148.17 392.39 151.43 387.7 C153.26 387.88 153.26 387.88 155.43 388.7 C156.84 390.96 156.84 390.96 158.05 393.83 C158.46 394.76 158.86 395.69 159.28 396.65 C165.21 412.42 164.27 428.08 157.97 443.53 C150.26 459.38 136.91 470.13 120.77 476.58 C116.14 478.13 111.44 479.3 106.68 480.36 C102.65 481.23 102.65 481.23 99.43 483.7 C98.95 487.76 98.95 487.76 99.43 491.7 C101.65 494.06 102.93 494.66 106.17 494.92 C114.68 494.16 122.32 492.31 130.43 489.7 C141.63 502.8 143.65 517.08 142.43 533.7 C139.9 547.11 131.6 559.37 120.68 567.39 C106.09 577.03 89.98 580.7 72.74 577.7 C63.55 575.58 54.05 571.46 46.69 565.47 C44.42 563.38 44.42 563.38 40.8 563.26 C37.5 563.42 37.5 563.42 35.55 565.08 C33.41 568.16 33.2 570.7 32.88 574.41 C30.7 599.21 20.65 620.86 1.48 637.11 C-20.96 655.22 -47.78 659.99 -76.04 657.48 C-80.01 656.94 -83.77 655.96 -87.57 654.7 C-89.19 654.17 -89.19 654.17 -90.83 653.63 C-107.05 647.82 -121.19 638.72 -132.57 625.7 C-133.42 624.79 -134.27 623.88 -135.15 622.94 C-138.99 617.47 -138.28 611.13 -138.23 604.71 C-138.24 603.28 -138.25 601.85 -138.27 600.41 C-138.29 596.5 -138.29 592.58 -138.28 588.66 C-138.28 584.45 -138.31 580.24 -138.33 576.03 C-138.37 567.83 -138.38 559.63 -138.38 551.43 C-138.38 541.94 -138.42 532.44 -138.45 522.95 C-138.53 501.43 -138.55 479.91 -138.57 458.38 C-138.57 451.73 -138.58 445.08 -138.59 438.43 C-138.59 437.51 -138.59 436.59 -138.59 435.65 C-138.59 433.81 -138.59 431.97 -138.6 430.13 C-138.65 387.99 -138.64 345.85 -138.57 303.7 C-131.98 308.05 -131.98 308.05 -129.21 310.69 C-128.64 311.23 -128.07 311.76 -127.48 312.32 C-126.89 312.88 -126.3 313.44 -125.7 314.01 C-124.45 315.19 -123.21 316.36 -121.96 317.53 C-121.07 318.36 -121.07 318.36 -120.17 319.21 C-116.04 323.07 -111.74 326.71 -107.44 330.37 C-100.86 335.96 -94.39 341.64 -88.07 347.53 C-84.43 350.92 -80.73 354.24 -76.97 357.49 C-76.15 358.21 -75.34 358.93 -74.57 359.7 C-74.49 362.44 -74.46 365.15 -74.48 367.89 C-74.48 368.62 -74.48 369.35 -74.48 370.09 C-74.49 372.82 -74.5 375.54 -74.51 378.26 C-74.53 384.35 -74.55 390.43 -74.57 396.7 C-61.7 396.7 -48.83 396.7 -35.57 396.7 C-35.57 346.87 -35.57 297.04 -35.57 245.7 C-48.44 245.7 -61.31 245.7 -74.57 245.7 C-74.57 268.14 -74.57 290.58 -74.57 313.7 C-79.72 309.84 -84.45 306.14 -89.07 301.76 C-90.21 300.71 -91.34 299.65 -92.47 298.59 C-93.27 297.84 -93.27 297.84 -94.09 297.07 C-96.55 294.8 -99.08 292.6 -101.62 290.41 C-103.96 288.36 -106.27 286.28 -108.57 284.2 C-112.19 280.94 -115.84 277.72 -119.51 274.52 C-122.7 271.71 -125.84 268.86 -128.98 266.01 C-131.36 263.79 -131.36 263.79 -133.33 262.5 C-136.07 260.51 -138.2 258.92 -139.23 255.61 C-139.48 253.06 -139.51 250.6 -139.46 248.04 C-139.47 247.08 -139.49 246.11 -139.5 245.11 C-139.52 241.88 -139.5 238.64 -139.48 235.41 C-139.49 233.09 -139.5 230.76 -139.52 228.44 C-139.55 222.14 -139.54 215.84 -139.51 209.53 C-139.5 203.6 -139.51 197.67 -139.52 191.74 C-139.54 179.28 -139.52 166.82 -139.48 154.36 C-139.45 143.67 -139.46 132.99 -139.49 122.31 C-139.52 109.89 -139.54 97.48 -139.52 85.06 C-139.51 78.5 -139.51 71.93 -139.53 65.36 C-139.55 59.18 -139.53 53 -139.49 46.83 C-139.49 44.56 -139.49 42.3 -139.5 40.03 C-139.62 20.78 -139.62 20.78 -135.18 14.99 C-134.01 13.85 -132.81 12.75 -131.57 11.7 C-130.71 10.64 -129.86 9.57 -129.04 8.47 C-116.59 -5.55 -99.4 -13.62 -81.57 -18.3 C-80.69 -18.55 -79.81 -18.79 -78.9 -19.04 C-52.1 -25.25 -21.05 -17.37 0 0 Z M-101.63 127.47 C-106.73 133 -108.82 137.5 -108.57 145.08 C-107.73 152.39 -104.18 156.39 -98.82 161.14 C-94.28 163.33 -88.7 164.69 -83.72 163.12 C-81.08 162.41 -79.29 162.27 -76.57 162.7 C-72.25 165.59 -68.82 169.31 -65.27 173.07 C-64.21 174.15 -63.15 175.22 -62.09 176.29 C-59.31 179.12 -56.56 181.97 -53.82 184.83 C-51.02 187.73 -48.2 190.62 -45.37 193.5 C-42.2 196.74 -39.03 199.98 -35.89 203.24 C-35.17 203.99 -35.17 203.99 -34.44 204.74 C-33.15 206.08 -31.86 207.41 -30.58 208.75 C-26.91 212.32 -23.57 211.83 -18.72 211.8 C-17.56 211.8 -17.56 211.8 -16.38 211.79 C-13.9 211.79 -11.43 211.78 -8.95 211.76 C-7.27 211.76 -5.6 211.75 -3.92 211.75 C0.2 211.74 4.31 211.72 8.43 211.7 C8.61 221.64 8.75 231.57 8.84 241.51 C8.88 246.12 8.94 250.74 9.03 255.35 C9.12 259.81 9.16 264.26 9.18 268.71 C9.2 270.41 9.23 272.11 9.27 273.81 C9.6 287.15 9.6 287.15 6.69 291 C4.67 292.51 2.68 293.57 0.43 294.7 C-3.98 298.97 -5.72 302.78 -5.89 308.89 C-5.8 314.32 -5.09 318.45 -1.57 322.7 C4.44 327.67 9.5 330.22 17.43 329.7 C24.4 328.33 28.52 324.51 32.43 318.7 C34.8 313.26 34.73 308.4 33.43 302.7 C32 299.27 32 299.27 30.43 296.7 C29.77 296.7 29.11 296.7 28.43 296.7 C28.1 295.71 27.77 294.72 27.43 293.7 C26.27 293.15 25.11 292.59 23.92 292.02 C22.01 290.98 22.01 290.98 20.43 289.7 C19.7 286.65 19.49 284.64 19.55 281.58 C19.54 280.36 19.54 280.36 19.53 279.11 C19.5 276.42 19.53 273.73 19.56 271.04 C19.55 269.17 19.54 267.3 19.53 265.43 C19.5 260.51 19.52 255.59 19.54 250.66 C19.56 244.68 19.54 238.69 19.52 232.71 C19.5 228.06 19.5 223.4 19.51 218.75 C19.51 217.89 19.51 217.04 19.52 216.15 C19.52 214.56 19.52 212.96 19.54 211.36 C19.54 208.2 19.43 205.73 18.43 202.7 C14.26 200.32 10.15 200.5 5.49 200.65 C3.94 200.67 2.39 200.7 0.84 200.72 C-1.59 200.77 -4.02 200.83 -6.44 200.89 C-8.8 200.95 -11.15 200.99 -13.51 201.02 C-14.23 201.05 -14.95 201.08 -15.69 201.1 C-20.83 201.15 -23.61 199.9 -27.57 196.7 C-29.52 194.74 -31.37 192.77 -33.2 190.7 C-38.2 185.16 -43.4 179.87 -48.75 174.66 C-50.04 173.4 -51.32 172.14 -52.61 170.88 C-54.56 168.98 -56.51 167.08 -58.48 165.19 C-60.35 163.4 -62.19 161.6 -64.04 159.79 C-64.61 159.25 -65.19 158.71 -65.78 158.15 C-67.34 156.6 -67.34 156.6 -69.57 153.7 C-69.43 150.99 -69.43 150.99 -68.57 148.7 C-68.1 142.41 -67.87 137.07 -71.57 131.7 C-76.45 126.18 -80.81 123.2 -88.18 122.65 C-93.42 122.76 -97.63 124.02 -101.63 127.47 Z M-7.32 401.45 C-11.46 406.47 -12.88 410.84 -12.32 417.33 C-11.95 420 -11.46 421.99 -10.45 424.51 C-9.37 427.21 -9.61 427.99 -10.57 430.7 C-13.24 435.06 -16.17 439.57 -20.9 441.79 C-25.08 442.76 -29.28 442.92 -33.57 442.7 C-33.8 442.14 -34.03 441.59 -34.26 441.01 C-37.16 435.9 -41.18 432.86 -46.57 430.7 C-53.3 428.89 -59.41 430.35 -65.41 433.74 C-69.57 436.84 -72.09 440.8 -73.57 445.7 C-74.58 452.77 -73.92 458.9 -69.57 464.7 C-64.81 469.77 -60.3 472.71 -53.26 473.01 C-47.56 472.83 -42.94 471.84 -38.63 467.93 C-35.79 464.82 -33.8 462.27 -32.26 458.33 C-30.57 455.7 -30.57 455.7 -28.46 454.96 C-26.79 454.63 -25.12 454.35 -23.44 454.12 C-22.49 453.98 -21.55 453.84 -20.57 453.7 C-19.95 453.61 -19.32 453.53 -18.67 453.44 C-12.8 452.36 -10.15 449.84 -6.57 445.2 C-6.09 444.61 -5.6 444.01 -5.09 443.4 C-2.44 440.42 -2.44 440.42 -1.57 436.7 C-0.51 436.75 0.55 436.79 1.64 436.84 C12.72 437.41 12.72 437.41 22.43 432.7 C27.37 427.75 30.07 422.81 30.86 415.83 C30.6 410.17 28.58 405.05 24.74 400.87 C18.47 395.32 13.94 394.28 5.55 394.46 C-0.41 394.92 -3.34 397.26 -7.32 401.45 Z " fill="#000202" transform="translate(785.57470703125,321.298828125)"/>
<path d="M0 0 C3.21 1.9 5.4 3.33 6.7 6.94 C7.31 10.4 7.19 12.52 5.88 15.81 C2.93 19.25 0.52 20.81 -4 21.38 C-7.45 20.94 -9.26 20.13 -12 18 C-14.57 14.58 -14.36 11.15 -14 7 C-12.75 4.18 -11.72 2.54 -9.25 0.69 C-5.93 -0.33 -3.46 -0.42 0 0 Z " fill="#000202" transform="translate(556,497)"/>
<path d="M0 0 C3.44 2.12 4.72 3.15 6 7 C6.43 14.91 6.43 14.91 4 18 C0.6 20.29 -1.45 21 -5.56 21 C-9.64 19.81 -11.32 18.24 -14 15 C-15.45 12.1 -15.37 10.23 -15 7 C-11.2 0.85 -7.15 -1.01 0 0 Z " fill="#000202" transform="translate(496,537)"/>
<path d="M0 0 C2.75 2.15 3.53 3.88 4 7.31 C4.31 10.89 3.98 12.71 1.69 15.5 C-1.38 18.36 -2.13 18.9 -6.25 19.38 C-11.1 18.89 -12.8 17.65 -16 14 C-17.06 11.25 -17.34 8.93 -17 6 C-15.33 2.53 -13.94 0.63 -10.75 -1.5 C-6.9 -2.2 -3.59 -1.54 0 0 Z " fill="#000202" transform="translate(801,728)"/>
<path d="M0 0 C2.27 3.03 2.51 5.69 2.48 9.46 C1.88 12.88 -0.24 14.43 -2.88 16.5 C-5.98 18.05 -8.45 17.79 -11.88 17.5 C-14.63 15.7 -16.4 14.45 -17.88 11.5 C-18.34 6.82 -18.6 3.84 -15.62 0.06 C-10.67 -4.56 -5.54 -4.43 0 0 Z " fill="#000202" transform="translate(740.875,765.5)"/>
<path d="M0 0 C2.63 2.36 3.68 4.17 4.94 7.44 C5.03 11.09 4.03 12.98 2 16 C-1.59 18.61 -3.21 19.11 -7.62 18.5 C-11.46 16.8 -12.97 15.66 -15 12 C-15.61 7.71 -15.5 5.77 -13.12 2.12 C-9.1 -1.9 -5.29 -1.37 0 0 Z " fill="#000202" transform="translate(805,622)"/>
<path d="M0 0 C2.87 0.25 4.3 0.78 6.94 2.12 C9.71 5.49 10.3 8.3 10 12.62 C8.78 15.59 7.77 17.07 5.19 18.94 C2.23 19.87 0.08 20 -3 19.62 C-6.34 17.5 -8.83 15.49 -10 11.62 C-9.91 8.08 -8.83 6.35 -6.94 3.31 C-3.51 0.18 -3.51 0.18 0 0 Z " fill="#000202" transform="translate(697,454.375)"/>
<path d="M0 0 C3.25 2.22 3.9 3.62 4.94 7.44 C5.01 11.42 4.4 12.89 2 16 C-0.37 18.37 -1.06 18.34 -4.31 18.44 C-7.85 18.33 -8.96 18.03 -12.06 16.06 C-14.65 11.98 -14.97 8.72 -14 4 C-10.14 -1.32 -6.13 -1.4 0 0 Z " fill="#000202" transform="translate(586,806)"/>
<path d="M0 0 C2.5 1.5 2.5 1.5 4 4 C4.94 8.77 4.68 11.96 2 16.06 C-1.33 18.21 -3.18 18.73 -7.07 18.5 C-10.31 17.66 -11.96 15.54 -14 13 C-14.33 12.67 -14.66 12.34 -15 12 C-15.4 7.88 -15.43 5.68 -13.19 2.12 C-9.2 -1.75 -5.11 -1.29 0 0 Z " fill="#000202" transform="translate(484,640)"/>
</svg>
